<?xml version="1.0" encoding="UTF-8"?>
<svg width="364px" height="12px" viewBox="0 0 364 12" version="1.1" xmlns="http://www.w3.org/2000/svg" xmlns:xlink="http://www.w3.org/1999/xlink">
    <!-- Generator: Sketch 51.1 (57501) - http://www.bohemiancoding.com/sketch -->
    <title>Status Bar</title>
    <desc>Created with Sketch.</desc>
    <defs></defs>
    <g id="Page-1" stroke="none" stroke-width="1" fill="none" fill-rule="evenodd">
        <g id="Washington-&amp;-State" transform="translate(-6.000000, -4.000000)">
            <g id="Status-Bar" transform="translate(6.000000, 3.000000)">
                <g id="Right-Detail" transform="translate(290.000000, 0.000000)">
                    <g id="Battery" transform="translate(11.000000, 0.000000)">
                        <g id="Battery-Icon" transform="translate(36.000000, 1.000000)">
                            <path d="M3.2048565,1 C2.26431807,1 1.89540921,1.07123959 1.5147423,1.27482248 C1.19446913,1.44610644 0.946106445,1.69446913 0.774822479,2.0147423 C0.571239588,2.39540921 0.5,2.76431807 0.5,3.7048565 L0.5,8.7951435 C0.5,9.73568193 0.571239588,10.1045908 0.774822479,10.4852577 C0.946106445,10.8055309 1.19446913,11.0538936 1.5147423,11.2251775 C1.89540921,11.4287604 2.26431807,11.5 3.2048565,11.5 L22.0738202,11.5 C22.8614775,11.5 23.5,10.8614775 23.5,10.0738202 L23.5,3.7048565 C23.5,2.76431807 23.4287604,2.39540921 23.2251775,2.0147423 C23.0538936,1.69446913 22.8055309,1.44610644 22.4852577,1.27482248 C22.1045908,1.07123959 21.7356819,1 20.7951435,1 L3.2048565,1 Z" id="Battery-Outline" stroke="#000000" opacity="0.47"></path>
                            <path d="M25,4.12802928 C25.8738943,4.43690659 26.5,5.27033588 26.5,6.25 C26.5,7.22966412 25.8738943,8.06309341 25,8.37197072 L25,4.12802928 Z" id="Battery-Connector" fill="#000000" opacity="0.58"></path>
                            <rect id="Battery-Fill" fill="#000000" x="2" y="2.5" width="20" height="7.5" rx="1"></rect>
                        </g>
                        <text id="100%" font-family="SFProText-Regular, SF Pro Text" font-size="12" font-weight="normal" fill="#030303">
                            <tspan x="2.85351562" y="11.5">100%</tspan>
                        </text>
                    </g>
                    <path d="M3.5,1 L7.5,4.5 L4.75,6.9995 L7.5,9.5 L3.5,13 L3.5,8.24902344 L1.25,10.5 L0.5,9.75 L3.25,7 L0.5,4.25 L1.25,3.5 L3.5,5.75 L3.5,1 Z M4.5,3.36999989 L4.5,6 L6,4.5999999 L4.5,3.36999989 Z M4.5005,8 L4.5,10.75 L6,9.45892334 L4.5005,8 Z" id="bluetooth" fill="#000000"></path>
                </g>
                <text id="Time" font-family="SFProText-Semibold, SF Pro Text" font-size="12" font-weight="500" fill="#030303">
                    <tspan x="157.239258" y="11.5">9:41 AM</tspan>
                </text>
                <g id="Left-Detail" transform="translate(0.000000, 2.000000)" fill="#000000">
                    <path d="M14.25,0 L15.75,0 C16.1642136,-7.6089797e-17 16.5,0.335786438 16.5,0.75 L16.5,9.25 C16.5,9.66421356 16.1642136,10 15.75,10 L14.25,10 C13.8357864,10 13.5,9.66421356 13.5,9.25 L13.5,0.75 C13.5,0.335786438 13.8357864,7.6089797e-17 14.25,0 Z M9.75,2 L11.25,2 C11.6642136,2 12,2.33578644 12,2.75 L12,9.25 C12,9.66421356 11.6642136,10 11.25,10 L9.75,10 C9.33578644,10 9,9.66421356 9,9.25 L9,2.75 C9,2.33578644 9.33578644,2 9.75,2 Z M5.25,4 L6.75,4 C7.16421356,4 7.5,4.33578644 7.5,4.75 L7.5,9.25 C7.5,9.66421356 7.16421356,10 6.75,10 L5.25,10 C4.83578644,10 4.5,9.66421356 4.5,9.25 L4.5,4.75 C4.5,4.33578644 4.83578644,4 5.25,4 Z M0.75,5.5 L2.25,5.5 C2.66421356,5.5 3,5.83578644 3,6.25 L3,9.25 C3,9.66421356 2.66421356,10 2.25,10 L0.75,10 C0.335786438,10 5.07265313e-17,9.66421356 0,9.25 L0,6.25 C-5.07265313e-17,5.83578644 0.335786438,5.5 0.75,5.5 Z" id="Signal"></path>
                    <path d="M20.9908519,2.99085192 C22.7169011,1.44209802 24.9984311,0.5 27.5,0.5 C30.0015689,0.5 32.2830989,1.44209802 34.0091481,2.99085192 L33.1237701,3.87622995 C31.6251889,2.5529753 29.6563669,1.75 27.5,1.75 C25.3436331,1.75 23.3748111,2.5529753 21.8762299,3.87622995 L20.9908519,2.99085192 Z M23.3831418,5.38314182 C24.4931668,4.44532529 25.9280645,3.88000011 27.4950008,3.88000011 C29.0644872,3.88000011 30.5015048,4.4471668 31.6122766,5.38772337 L30.7300995,6.26990048 C29.8478592,5.55102715 28.7217659,5.11999989 27.4950008,5.11999989 C26.2707894,5.11999989 25.1468312,5.54923452 24.2654149,6.26541489 L23.3831418,5.38314182 Z M25.8767575,7.87675746 C26.3386883,7.56019965 26.8977163,7.375 27.5,7.375 C28.1022837,7.375 28.6613117,7.56019965 29.1232425,7.87675746 L27.5,9.5 L25.8767575,7.87675746 Z" id="Wifi" stroke="#000000" stroke-linecap="round" stroke-linejoin="round"></path>
                </g>
            </g>
        </g>
    </g>
</svg>